<svg width="500" height="500" viewBox="0 0 500 500" fill="none" xmlns="http://www.w3.org/2000/svg">
<circle cx="250" cy="250" r="250" transform="rotate(90 250 250)" fill="#6A0DAD"/>
<path d="M113 166H172V365.66H128C119.716 365.66 113 358.944 113 350.66V166Z" fill="white"/>
<path d="M221.405 251.098C223.545 249.382 226.667 249.71 228.404 251.832L262.5 293.5L175.144 364.537C173.096 366.203 170.105 365.989 168.315 364.049L141.903 335.431C136.008 329.042 136.76 318.996 143.541 313.557L221.405 251.098Z" fill="white"/>
<path d="M314 212.047H343.5V204H373V307H314V212.047Z" fill="white"/>
<path d="M220.455 255C220.455 252.239 222.693 250 225.455 250H279.546V365.909H220.455V255Z" fill="white"/>
<path d="M373 306.818V350.909C373 359.193 366.284 365.909 358 365.909H268.182V306.818H373Z" fill="white"/>
<rect x="306.818" y="178.636" width="27.2727" height="27.2727" fill="white"/>
<rect x="338.636" y="137.727" width="40.9091" height="40.9091" fill="white"/>
</svg>
